<?xml version="1.0" encoding="UTF-8"?>
<svg version="1.1" xmlns="http://www.w3.org/2000/svg" width="1024" height="379" viewBox="0 0 1024 379">
<path d="M0 0 C0.99 0.33 1.98 0.66 3 1 C3.19635974 4.45789054 3.38058252 7.91632197 3.5625 11.375 C3.61857422 12.35984375 3.67464844 13.3446875 3.73242188 14.359375 C3.78076172 15.30039063 3.82910156 16.24140625 3.87890625 17.2109375 C3.9260376 18.08024902 3.97316895 18.94956055 4.02172852 19.84521484 C4 22 4 22 3 24 C43.095 23.505 43.095 23.505 84 23 C84.33 15.74 84.66 8.48 85 1 C86.32 1 87.64 1 89 1 C89 8.59 89 16.18 89 24 C114.08 23.67 139.16 23.34 165 23 C165.33 15.74 165.66 8.48 166 1 C167.32 1 168.64 1 170 1 C170.33 8.26 170.66 15.52 171 23 C177.6 23.33 184.2 23.66 191 24 C191 25.32 191 26.64 191 28 C169.88 28.33 148.76 28.66 127 29 C126.67 35.93 126.34 42.86 126 50 C147.45 50 168.9 50 191 50 C191 51.65 191 53.3 191 55 C184.4 55 177.8 55 171 55 C171.03952742 60.83378691 171.03952742 60.83378691 171.09008789 66.66748047 C171.09383423 67.75633545 171.09383423 67.75633545 171.09765625 68.8671875 C171.10551147 69.98262939 171.10551147 69.98262939 171.11352539 71.12060547 C171 73 171 73 170 75 C176.93 75 183.86 75 191 75 C191 76.65 191 78.3 191 80 C170.87 80.33 150.74 80.66 130 81 C135.28 81.99 140.56 82.98 146 84 C153.48326556 87.20711381 161.82514476 90.80040244 166.25488281 98.05517578 C167.85451191 100.21695732 167.85451191 100.21695732 170.4519043 100.54589844 C171.39976807 100.5668457 172.34763184 100.58779297 173.32421875 100.609375 C174.35224609 100.64160156 175.38027344 100.67382812 176.43945312 100.70703125 C177.51130859 100.72121094 178.58316406 100.73539062 179.6875 100.75 C180.77095703 100.77964844 181.85441406 100.80929688 182.97070312 100.83984375 C185.64721059 100.91058844 188.32284479 100.96326156 191 101 C190.67 102.65 190.34 104.3 190 106 C183.73 106 177.46 106 171 106 C171.66 107.98 172.32 109.96 173 112 C174.86653817 117.5996145 175 120.72223928 175 127 C183.415 126.505 183.415 126.505 192 126 C191.67 127.65 191.34 129.3 191 131 C185.39 131 179.78 131 174 131 C174 133.31 174 135.62 174 138 C173.37890625 140.51171875 173.37890625 140.51171875 172.5625 142.6875 C171.75890726 144.87311696 171.01540839 146.92805173 170.52734375 149.20703125 C170.26630859 150.09455078 170.26630859 150.09455078 170 151 C169.34 151.33 168.68 151.66 168 152 C175.59 152.33 183.18 152.66 191 153 C191 154.32 191 155.64 191 157 C184.07 157 177.14 157 170 157 C170 163.93 170 170.86 170 178 C176.93 178 183.86 178 191 178 C190.67 179.65 190.34 181.3 190 183 C169.21 183 148.42 183 127 183 C126.67 189.6 126.34 196.2 126 203 C147.45 203 168.9 203 191 203 C191 204.65 191 206.3 191 208 C184.07 208 177.14 208 170 208 C170 214.93 170 221.86 170 229 C176.93 229 183.86 229 191 229 C191 230.65 191 232.3 191 234 C169.55 234 148.1 234 126 234 C126 241.92 126 249.84 126 258 C124.68 258 123.36 258 122 258 C122 250.08 122 242.16 122 234 C118.8340625 234.08378906 115.668125 234.16757812 112.40625 234.25390625 C88.55548871 234.85194415 64.83507113 235.14676508 41 234 C41 241.92 41 249.84 41 258 C39.68 258 38.36 258 37 258 C37 250.08 37 242.16 37 234 C33.82246094 234.17402344 30.64492188 234.34804688 27.37109375 234.52734375 C12.92565991 235.2140302 -1.48602941 234.8842141 -15.9375 234.5625 C-18.57876267 234.50910017 -21.22003881 234.45636208 -23.86132812 234.40429688 C-30.24112529 234.27834037 -36.62042027 234.13891882 -43 234 C-43 241.92 -43 249.84 -43 258 C-44.32 258 -45.64 258 -47 258 C-47 250.08 -47 242.16 -47 234 C-50.85300781 234.17402344 -54.70601562 234.34804688 -58.67578125 234.52734375 C-73.53085044 235.12184747 -88.32950023 234.91113012 -103.1875 234.5625 C-105.71417771 234.50905199 -108.24087057 234.45631493 -110.76757812 234.40429688 C-116.84532648 234.27896197 -122.92249237 234.13924498 -129 234 C-129 241.92 -129 249.84 -129 258 C-130.65 258 -132.3 258 -134 258 C-135 253 -135 253 -134 234 C-160.07 234 -186.14 234 -213 234 C-213.33 241.92 -213.66 249.84 -214 258 C-215.32 258 -216.64 258 -218 258 C-218 250.08 -218 242.16 -218 234 C-223.61 234 -229.22 234 -235 234 C-235 232.35 -235 230.7 -235 229 C-214.87 229 -194.74 229 -174 229 C-174.33 222.73 -174.66 216.46 -175 210 C-174.67 209.34 -174.34 208.68 -174 208 C-194.46 208 -214.92 208 -236 208 C-235.67 206.35 -235.34 204.7 -235 203 C-229.39 203 -223.78 203 -218 203 C-218.495 193.1 -218.495 193.1 -219 183 C-224.28 183 -229.56 183 -235 183 C-235 181.35 -235 179.7 -235 178 C-214.87 178 -194.74 178 -174 178 C-174 175.69 -174 173.38 -174 171 C-175.12494873 171.01047363 -176.24989746 171.02094727 -177.40893555 171.03173828 C-181.5928223 171.06800846 -185.77669521 171.09092602 -189.96069336 171.10986328 C-191.76963643 171.11990487 -193.57856333 171.1335408 -195.38745117 171.15087891 C-197.99141435 171.17520832 -200.59516242 171.18650161 -203.19921875 171.1953125 C-204.40731453 171.21079636 -204.40731453 171.21079636 -205.63981628 171.22659302 C-209.83446302 171.22742632 -213.25276297 171.12250842 -217 169 C-219.8912393 164.66314105 -218.73562498 162.07581238 -218 157 C-223.61 157 -229.22 157 -235 157 C-235 155.68 -235 154.36 -235 153 C-229.72 152.67 -224.44 152.34 -219 152 C-219 145.07 -219 138.14 -219 131 C-224.28 131 -229.56 131 -235 131 C-235 129.68 -235 128.36 -235 127 C-229.39 127 -223.78 127 -218 127 C-218.185625 124.834375 -218.37125 122.66875 -218.5625 120.4375 C-218.99303283 115.41461698 -218.86375284 110.97137747 -218 106 C-219.14339844 106.08378906 -220.28679687 106.16757813 -221.46484375 106.25390625 C-222.95571002 106.35704794 -224.44659653 106.45989747 -225.9375 106.5625 C-227.06961914 106.64661133 -227.06961914 106.64661133 -228.22460938 106.73242188 C-230.14745958 106.86176157 -232.07389548 106.93516912 -234 107 C-234.33 106.67 -234.66 106.34 -235 106 C-235 104.02 -235 102.04 -235 100 C-229.39 100.33 -223.78 100.66 -218 101 C-218 94.07 -218 87.14 -218 80 C-223.61 80 -229.22 80 -235 80 C-235 78.02 -235 76.04 -235 74 C-204.805 74.495 -204.805 74.495 -174 75 C-174.33 68.4 -174.66 61.8 -175 55 C-194.8 55 -214.6 55 -235 55 C-235 53.35 -235 51.7 -235 50 C-229.39 50 -223.78 50 -218 50 C-218.33 43.07 -218.66 36.14 -219 29 C-224.61 28.67 -230.22 28.34 -236 28 C-235.67 26.68 -235.34 25.36 -235 24 C-215.2 23.67 -195.4 23.34 -175 23 C-174.67 15.74 -174.34 8.48 -174 1 C-172.35 1 -170.7 1 -169 1 C-169 8.59 -169 16.18 -169 24 C-142.27 24 -115.54 24 -88 24 C-88 16.41 -88 8.82 -88 1 C-86.68 1 -85.36 1 -84 1 C-83.67 8.26 -83.34 15.52 -83 23 C-56.6 23 -30.2 23 -3 23 C-2.67 16.07 -2.34 9.14 -2 2 C-1.34 1.34 -0.68 0.68 0 0 Z M-213 28 C-215.32139805 34.96419414 -214 42.65909482 -214 50 C-187.6 50 -161.2 50 -134 50 C-134 42.74 -134 35.48 -134 28 C-160.07 28 -186.14 28 -213 28 Z M-129 28 C-129 35.26 -129 42.52 -129 50 C-102.27 50 -75.54 50 -48 50 C-46.60229416 47.74691447 -46.60229416 47.74691447 -48 44 C-47.67 38.72 -47.34 33.44 -47 28 C-74.06 28 -101.12 28 -129 28 Z M-43 28 C-43 35.26 -43 42.52 -43 50 C-16.6 50 9.8 50 37 50 C37 42.74 37 35.48 37 28 C10.6 28 -15.8 28 -43 28 Z M41 28 C41 35.26 41 42.52 41 50 C67.4 50 93.8 50 121 50 C121 42.74 121 35.48 121 28 C94.6 28 68.2 28 41 28 Z M-84 54 C-84 60.93 -84 67.86 -84 75 C-56.61 75 -29.22 75 -1 75 C-1 74.01 -1 73.02 -1 72 C-1.66 72 -2.32 72 -3 72 C-2.505 70.515 -2.505 70.515 -2 69 C-2 64.38 -2 59.76 -2 55 C-29.06 54.67 -56.12 54.34 -84 54 Z M3 54 C3 60.93 3 67.86 3 75 C30.06 75 57.12 75 85 75 C85 68.4 85 61.8 85 55 C57.94 54.67 30.88 54.34 3 54 Z M-169 55 C-169 61.6 -169 68.2 -169 75 C-142.27 75 -115.54 75 -88 75 C-88 68.4 -88 61.8 -88 55 C-114.73 55 -141.46 55 -169 55 Z M157.90991211 54.09179688 C157.16849472 54.10155045 156.42707733 54.11130402 155.66319275 54.12135315 C153.20124226 54.15375644 150.73929301 54.18625304 148.27734375 54.21875 C146.57483426 54.24117597 144.8723247 54.26359615 143.16981506 54.28601074 C138.68008346 54.34513649 134.19035291 54.40434125 129.70062256 54.46356201 C125.12268129 54.52393247 120.54473904 54.58422881 115.96679688 54.64453125 C106.97786362 54.76294798 97.98893156 54.88145494 89 55 C89 61.6 89 68.2 89 75 C114.41 75 139.82 75 166 75 C166 68.07 166 61.14 166 54 C163.303384 54 160.60630557 54.05613761 157.90991211 54.09179688 Z M-214 80 C-214 80.66 -214 81.32 -214 82 C-213.01520409 82.01213028 -213.01520409 82.01213028 -212.01051331 82.02450562 C-205.14785113 82.11088157 -198.28546687 82.21039805 -191.4230957 82.31738281 C-188.86552618 82.35555308 -186.30790515 82.39042633 -183.75024414 82.421875 C-180.06377823 82.46778545 -176.3776632 82.52573723 -172.69140625 82.5859375 C-170.98930748 82.60326431 -170.98930748 82.60326431 -169.25282288 82.62094116 C-157.52358282 82.83664605 -146.74135185 84.45731524 -138 93 C-136.125 96.3125 -136.125 96.3125 -135 99 C-134.67 99 -134.34 99 -134 99 C-134 92.73 -134 86.46 -134 80 C-160.4 80 -186.8 80 -214 80 Z M-129 80 C-129 82.64 -129 85.28 -129 88 C-128.71125 87.360625 -128.4225 86.72125 -128.125 86.0625 C-127 84 -127 84 -125 83 C-120.43171796 82.78817582 -115.85975522 82.81420325 -111.28710938 82.81469727 C-109.00892523 82.81250857 -106.73122357 82.79434196 -104.453125 82.77539062 C-103.01041833 82.77245707 -101.56770935 82.77047202 -100.125 82.76953125 C-98.14886719 82.76336792 -98.14886719 82.76336792 -96.1328125 82.75708008 C-93 83 -93 83 -91 85 C-90.6936141 87.73434962 -90.4886664 90.38279821 -90.375 93.125 C-90.31699219 94.25615234 -90.31699219 94.25615234 -90.2578125 95.41015625 C-90.16348969 97.27303184 -90.08065338 99.13648255 -90 101 C-86.04 101 -82.08 101 -78 101 C-77.67 95.39 -77.34 89.78 -77 84 C-73.76134365 82.92044788 -71.20844162 82.79558259 -67.80078125 82.68359375 C-66.59228516 82.64169922 -65.38378906 82.59980469 -64.13867188 82.55664062 C-62.87603516 82.51732422 -61.61339844 82.47800781 -60.3125 82.4375 C-59.03826172 82.39431641 -57.76402344 82.35113281 -56.45117188 82.30664062 C-53.30089148 82.2004514 -50.15053161 82.09840467 -47 82 C-47 81.34 -47 80.68 -47 80 C-74.06 80 -101.12 80 -129 80 Z M36 79 C35.34 79.33 34.68 79.66 34 80 C31.5585844 80.09279918 29.14599941 80.12583928 26.70458984 80.11352539 C25.57761436 80.11374443 25.57761436 80.11374443 24.4278717 80.1139679 C21.9388645 80.11326996 19.44993167 80.10548314 16.9609375 80.09765625 C15.23743735 80.09579165 13.51393666 80.09436794 11.79043579 80.09336853 C7.24974103 80.08954669 2.70907815 80.07971922 -1.831604 80.06866455 C-6.46325245 80.05844329 -11.09490603 80.05386937 -15.7265625 80.04882812 C-24.81772461 80.03809667 -33.90885467 80.02050255 -43 80 C-43 86.93 -43 93.86 -43 101 C-41.68 101 -40.36 101 -39 101 C-38.96261719 99.86820313 -38.92523438 98.73640625 -38.88671875 97.5703125 C-38.82106918 96.08850795 -38.75462149 94.60673861 -38.6875 93.125 C-38.65366211 92.00544922 -38.65366211 92.00544922 -38.61914062 90.86328125 C-38.52188055 88.900396 -38.26957706 86.94671678 -38 85 C-34.30841682 82.53894455 -31.53376446 82.74424207 -27.26953125 82.8046875 C-26.51911057 82.8075174 -25.76868988 82.81034729 -24.99552917 82.81326294 C-22.60102325 82.82444938 -20.20689269 82.84955072 -17.8125 82.875 C-16.18815645 82.88503181 -14.56380703 82.89415731 -12.93945312 82.90234375 C-8.959491 82.92438363 -4.97980912 82.9589026 -1 83 C-1 83.66 -1 84.32 -1 85 C-0.34 85 0.32 85 1 85 C0.67 85.66 0.34 86.32 0 87 C-0.07116382 89.37402501 -0.08409085 91.75000677 -0.0625 94.125 C-0.05347656 95.40632813 -0.04445313 96.68765625 -0.03515625 98.0078125 C-0.02355469 98.99523437 -0.01195312 99.98265625 0 101 C1.98 101 3.96 101 6 101 C5.98839844 100.19175781 5.97679687 99.38351563 5.96484375 98.55078125 C5.95582031 97.48214844 5.94679688 96.41351563 5.9375 95.3125 C5.92589844 94.25675781 5.91429687 93.20101562 5.90234375 92.11328125 C5.99213632 89.25069411 6.21170561 86.75159363 7 84 C9.79120091 82.60439955 12.20205692 82.78191712 15.3203125 82.68359375 C17.20556641 82.62075195 17.20556641 82.62075195 19.12890625 82.55664062 C20.44761719 82.51732422 21.76632812 82.47800781 23.125 82.4375 C24.46485751 82.39430488 25.80470156 82.35069027 27.14453125 82.30664062 C30.42957815 82.20029019 33.71470281 82.09826192 37 82 C36.505 80.515 36.505 80.515 36 79 Z M41 80 C41 80.99 41 81.98 41 83 C41.99 83.495 41.99 83.495 43 84 C43.33 89.61 43.66 95.22 44 101 C57.53 101 71.06 101 85 101 C85 96.71 85 92.42 85 88 C87 84 87 84 89 83 C91.40560273 82.84391977 93.78702772 82.74195542 96.1953125 82.68359375 C96.90275604 82.66281265 97.61019958 82.64203156 98.33908081 82.62062073 C100.60095425 82.55518922 102.86294462 82.49627026 105.125 82.4375 C106.65756422 82.39430867 108.19011657 82.35069418 109.72265625 82.30664062 C113.48165073 82.19951445 117.24076292 82.0982291 121 82 C121 81.34 121 80.68 121 80 C94.6 80 68.2 80 41 80 Z M-204 88 C-204 92.29 -204 96.58 -204 101 C-201.1846875 101.061875 -201.1846875 101.061875 -198.3125 101.125 C-197.25675781 101.14820313 -196.20101562 101.17140625 -195.11328125 101.1953125 C-191.92825394 100.99549899 -189.91171854 100.22939227 -187 99 C-179.04344105 97.60450734 -170.4049636 97.2975182 -163 101 C-160.44842345 101.0716735 -157.92527029 101.09308442 -155.375 101.0625 C-154.66859375 101.05798828 -153.9621875 101.05347656 -153.234375 101.04882812 C-151.48954725 101.03703875 -149.744763 101.01910324 -148 101 C-148.86087702 96.68645663 -150.61985505 94.86577507 -154 92 C-161.31325176 88.20794353 -168.50555938 87.84702296 -176.55859375 87.90234375 C-177.34774673 87.9037587 -178.13689972 87.90517365 -178.94996643 87.90663147 C-181.44585115 87.91218445 -183.94164285 87.92472792 -186.4375 87.9375 C-188.13997265 87.94252109 -189.84244673 87.94708293 -191.54492188 87.95117188 C-195.69664988 87.96213842 -199.84830922 87.97937009 -204 88 Z M-115 88 C-115 92.29 -115 96.58 -115 101 C-111.37 101 -107.74 101 -104 101 C-104 96.71 -104 92.42 -104 88 C-107.63 88 -111.26 88 -115 88 Z M-65 88 C-65 92.29 -65 96.58 -65 101 C-62.69 101 -60.38 101 -58 101 C-58 96.71 -58 92.42 -58 88 C-60.31 88 -62.62 88 -65 88 Z M-26 88 C-26 92.29 -26 96.58 -26 101 C-22.04 101 -18.08 101 -14 101 C-14 96.71 -14 92.42 -14 88 C-17.96 88 -21.92 88 -26 88 Z M19 88 C18.67 92.29 18.34 96.58 18 101 C21.96 101 25.92 101 30 101 C30 96.71 30 92.42 30 88 C26.37 88 22.74 88 19 88 Z M99 88 C99 92.29 99 96.58 99 101 C106.45195235 101.0784416 113.61694543 101.00109214 121 100 C121 96.04 121 92.08 121 88 C113.74 88 106.48 88 99 88 Z M126 88 C126 91.96 126 95.92 126 100 C131.84888043 101.01894076 137.50919169 101.11798453 143.4375 101.0625 C144.35982422 101.05798828 145.28214844 101.05347656 146.23242188 101.04882812 C148.48835048 101.03713938 150.74413967 101.02075455 153 101 C147.78299409 94.20553875 141.55728621 90.10567593 132.99609375 88.40234375 C130.67203204 88.16762343 128.33487484 88.06867279 126 88 Z M-129 91 C-129 94.3 -129 97.6 -129 101 C-128.67 101 -128.34 101 -128 101 C-128 97.7 -128 94.4 -128 91 C-128.33 91 -128.66 91 -129 91 Z M-179 105 C-179.16681109 107.91652174 -179.16681109 107.91652174 -179 111 C-178.34 111.66 -177.68 112.32 -177 113 C-176.01 113 -175.02 113 -174 113 C-174 110.69 -174 108.38 -174 106 C-175.65 105.67 -177.3 105.34 -179 105 Z M-204 106 C-204 112.93 -204 119.86 -204 127 C-194.1 127 -184.2 127 -174 127 C-174 124.69 -174 122.38 -174 120 C-174.97582031 119.93941406 -175.95164062 119.87882812 -176.95703125 119.81640625 C-178.22933594 119.73261719 -179.50164062 119.64882812 -180.8125 119.5625 C-182.07707031 119.48128906 -183.34164062 119.40007812 -184.64453125 119.31640625 C-188 119 -188 119 -191 118 C-191.66 114.04 -192.32 110.08 -193 106 C-196.63 106 -200.26 106 -204 106 Z M-159 106 C-159.165 107.5675 -159.33 109.135 -159.5 110.75 C-160.40468135 115.51645546 -160.40468135 115.51645546 -162.9140625 117.5546875 C-164.91963241 118.52558177 -166.87384812 119.33743174 -169 120 C-169 122.31 -169 124.62 -169 127 C-166.03 127 -163.06 127 -160 127 C-160.33 126.01 -160.66 125.02 -161 124 C-160.48050781 123.69707031 -159.96101563 123.39414063 -159.42578125 123.08203125 C-151.83121406 118.91107632 -151.83121406 118.91107632 -147.4765625 111.90625 C-147.22139325 109.9476536 -147.1003017 107.9726 -147 106 C-150.96 106 -154.92 106 -159 106 Z M-133 106 C-133.17015625 106.66386719 -133.3403125 107.32773438 -133.515625 108.01171875 C-135.66449586 115.84138119 -138.43533533 120.0765015 -145 125 C-141.2632157 127.49118953 -139.25548181 127.2065226 -134.8125 127.125 C-132.564375 127.08375 -130.31625 127.0425 -128 127 C-128.33 120.07 -128.66 113.14 -129 106 C-130.32 106 -131.64 106 -133 106 Z M-115 106 C-115 112.93 -115 119.86 -115 127 C-111.37 127 -107.74 127 -104 127 C-104 120.07 -104 113.14 -104 106 C-107.63 106 -111.26 106 -115 106 Z M-90 106 C-90 112.93 -90 119.86 -90 127 C-89.34 127 -88.68 127 -88 127 C-88 120.07 -88 113.14 -88 106 C-88.66 106 -89.32 106 -90 106 Z M-84 106 C-84 112.93 -84 119.86 -84 127 C-82.02 127 -80.04 127 -78 127 C-78 120.07 -78 113.14 -78 106 C-79.98 106 -81.96 106 -84 106 Z M-65 106 C-65 112.93 -65 119.86 -65 127 C-62.69 127 -60.38 127 -58 127 C-58 120.07 -58 113.14 -58 106 C-60.31 106 -62.62 106 -65 106 Z M-44 106 C-44 112.93 -44 119.86 -44 127 C-42.35 127 -40.7 127 -39 127 C-39 120.07 -39 113.14 -39 106 C-40.65 106 -42.3 106 -44 106 Z M-25 106 C-26.17426264 108.34852528 -26.11508173 109.73774065 -26.09765625 112.3515625 C-26.09443359 113.20234375 -26.09121094 114.053125 -26.08789062 114.9296875 C-26.07951172 115.81914062 -26.07113281 116.70859375 -26.0625 117.625 C-26.05798828 118.5221875 -26.05347656 119.419375 -26.04882812 120.34375 C-26.03702611 122.56252831 -26.01909039 124.78127243 -26 127 C-22.04 127 -18.08 127 -14 127 C-14 120.07 -14 113.14 -14 106 C-17.63 106 -21.26 106 -25 106 Z M3 106 C3 112.93 3 119.86 3 127 C3.99 127 4.98 127 6 127 C6 120.07 6 113.14 6 106 C5.01 106 4.02 106 3 106 Z M18 106 C18 112.93 18 119.86 18 127 C21.96 127 25.92 127 30 127 C30 120.07 30 113.14 30 106 C26.04 106 22.08 106 18 106 Z M44 106 C44 112.93 44 119.86 44 127 C57.53 127 71.06 127 85 127 C85 120.07 85 113.14 85 106 C71.47 106 57.94 106 44 106 Z M99 106 C99 112.93 99 119.86 99 127 C102.96 127 106.92 127 111 127 C110.34 126.67 109.68 126.34 109 126 C109.33 125.34 109.66 124.68 110 124 C110.08308638 122.62451844 110.10736016 121.24514204 110.09765625 119.8671875 C110.09443359 119.06152344 110.09121094 118.25585938 110.08789062 117.42578125 C110.07951172 116.58402344 110.07113281 115.74226563 110.0625 114.875 C110.05798828 114.02550781 110.05347656 113.17601562 110.04882812 112.30078125 C110.03702874 110.20049091 110.01909306 108.1002367 110 106 C106.37 106 102.74 106 99 106 Z M143 106 C143.66 107.32 144.32 108.64 145 110 C145.77924623 112.53874566 146.50713137 115.06072257 147.1875 117.625 C147.37763672 118.305625 147.56777344 118.98625 147.76367188 119.6875 C149.12131495 124.75737009 149.12131495 124.75737009 148 127 C152.29 127 156.58 127 161 127 C161.27716268 119.37802619 160.43680414 112.87360828 157 106 C152.38 106 147.76 106 143 106 Z M124 107 C124 113.6 124 120.2 124 127 C127.63 127 131.26 127 135 127 C134.97026723 116.60812871 134.97026723 116.60812871 129.66796875 108.07421875 C127.77017175 106.63903067 127.77017175 106.63903067 124 107 Z M-179 112 C-178 114 -178 114 -178 114 Z M-204 131 C-204 138.26 -204 145.52 -204 153 C-200.04 153 -196.08 153 -192 153 C-192 146.4 -192 139.8 -192 133 C-187.4365148 132.86516295 -182.87700559 132.76592793 -178.3125 132.6875 C-176.37213867 132.6246582 -176.37213867 132.6246582 -174.39257812 132.56054688 C-172.52182617 132.53637695 -172.52182617 132.53637695 -170.61328125 132.51171875 C-169.46641846 132.48553467 -168.31955566 132.45935059 -167.13793945 132.43237305 C-163.03032953 133.17540526 -161.58993298 134.80281703 -159 138 C-157.69337805 141.83820198 -157.76143912 143.42063787 -159.3125 147.1875 C-160.4930135 149.15502251 -161.72723717 151.09085576 -163 153 C-160.18743719 153.02684312 -157.37512759 153.04676188 -154.5625 153.0625 C-153.76005859 153.07087891 -152.95761719 153.07925781 -152.13085938 153.08789062 C-150.08704779 153.0965143 -148.04316098 153.0522815 -146 153 C-144.21927258 151.21927258 -144.74384706 148.72356123 -144.6875 146.3125 C-144.73145947 141.02480413 -145.30337545 138.0046766 -149 134 C-152.09216252 131.22830202 -154.00328405 130.62873726 -158.13574219 130.65942383 C-159.15649841 130.65965042 -160.17725464 130.65987701 -161.22894287 130.66011047 C-162.32386047 130.67559433 -163.41877808 130.69107819 -164.546875 130.70703125 C-165.6732135 130.71127609 -166.799552 130.71552094 -167.96002197 130.71989441 C-171.55692463 130.73668503 -175.15326672 130.77433901 -178.75 130.8125 C-181.18879399 130.82754629 -183.62759677 130.84123479 -186.06640625 130.85351562 C-192.04448677 130.88658999 -198.02214835 130.93837592 -204 131 Z M-136 131 C-135.34 131.66 -134.68 132.32 -134 133 C-134 132.34 -134 131.68 -134 131 C-134.66 131 -135.32 131 -136 131 Z M-129 131 C-129 138.26 -129 145.52 -129 153 C-128.01 153 -127.02 153 -126 153 C-126.23009766 151.77410156 -126.23009766 151.77410156 -126.46484375 150.5234375 C-127.0677782 146.55375228 -127.34157964 142.63053967 -127.5625 138.625 C-127.60568359 137.88894531 -127.64886719 137.15289062 -127.69335938 136.39453125 C-127.79843799 134.59651932 -127.89962093 132.79828042 -128 131 C-128.33 131 -128.66 131 -129 131 Z M-115 131 C-115.47233089 139.48883565 -115.08226783 145.47331868 -111 153 C-105.72 153 -100.44 153 -95 153 C-95.928125 152.0925 -96.85625 151.185 -97.8125 150.25 C-102.38353918 144.97655527 -104 137.89408941 -104 131 C-107.63 131 -111.26 131 -115 131 Z M-90 131 C-90.73670045 137.65763733 -90.73670045 137.65763733 -88.88671875 143.84375 C-87.39096172 145.35673892 -87.39096172 145.35673892 -85 147 C-81.75548596 145.46312493 -80.25669407 144.53783519 -78.6875 141.25 C-77.9457451 137.74352231 -77.85703433 134.57414165 -78 131 C-81.96 131 -85.92 131 -90 131 Z M-65 131 C-65.09796875 131.86882812 -65.1959375 132.73765625 -65.296875 133.6328125 C-66.42234416 142.30668688 -67.78218735 146.87076018 -74 153 C-72.06440687 153.13504138 -70.126128 153.23201129 -68.1875 153.3125 C-66.56908203 153.39951172 -66.56908203 153.39951172 -64.91796875 153.48828125 C-61.80398775 153.30943179 -61.80398775 153.30943179 -60.17578125 150.60546875 C-59.59376953 149.31576172 -59.59376953 149.31576172 -59 148 C-58.67 147.34 -58.34 146.68 -58 146 C-57.9283265 143.44842345 -57.90691558 140.92527029 -57.9375 138.375 C-57.94201172 137.66859375 -57.94652344 136.9621875 -57.95117188 136.234375 C-57.96296125 134.48954725 -57.98089676 132.744763 -58 131 C-60.31 131 -62.62 131 -65 131 Z M-43 131 C-43 138.26 -43 145.52 -43 153 C-41.68 153 -40.36 153 -39 153 C-39 145.74 -39 138.48 -39 131 C-40.32 131 -41.64 131 -43 131 Z M-26 131 C-26 138.26 -26 145.52 -26 153 C-22.04 153 -18.08 153 -14 153 C-14 145.74 -14 138.48 -14 131 C-17.96 131 -21.92 131 -26 131 Z M0 131 C0 138.26 0 145.52 0 153 C1.65 153 3.3 153 5 153 C6.22784809 151.99440206 6.22784809 151.99440206 6.11352539 149.95874023 C6.10828857 149.08419189 6.10305176 148.20964355 6.09765625 147.30859375 C6.09443359 146.36435547 6.09121094 145.42011719 6.08789062 144.44726562 C6.07951172 143.45404297 6.07113281 142.46082031 6.0625 141.4375 C6.05798828 140.44041016 6.05347656 139.44332031 6.04882812 138.41601562 C6.03700007 135.94395151 6.02051849 133.47200482 6 131 C4.02 131 2.04 131 0 131 Z M18 131 C18.33 138.26 18.66 145.52 19 153 C19.66 152.67 20.32 152.34 21 152 C21.99 152.33 22.98 152.66 24 153 C25.89470816 153.0685495 27.7916834 153.08480372 29.6875 153.0625 C30.68136719 153.05347656 31.67523438 153.04445312 32.69921875 153.03515625 C33.45847656 153.02355469 34.21773438 153.01195312 35 153 C34.360625 152.566875 33.72125 152.13375 33.0625 151.6875 C28.81742768 146.15604213 29.84973374 137.76198158 30 131 C26.04 131 22.08 131 18 131 Z M44 131 C44 136.28 44 141.56 44 147 C62.315 147.495 62.315 147.495 81 148 C81.495 150.475 81.495 150.475 82 153 C82.99 153 83.98 153 85 153 C85 145.74 85 138.48 85 131 C71.47 131 57.94 131 44 131 Z M99 131 C99 138.26 99 145.52 99 153 C104.28 153 109.56 153 115 153 C113.68 152.01 112.36 151.02 111 150 C110.75 146.3125 110.75 146.3125 111 143 C110.34 143 109.68 143 109 143 C109.33 142.34 109.66 141.68 110 141 C110.06996014 139.29297265 110.08440154 137.58331997 110.0625 135.875 C110.041875 134.26625 110.02125 132.6575 110 131 C106.37 131 102.74 131 99 131 Z M126 131 C126 135.62 126 140.24 126 145 C131.28841325 141.91768155 131.28841325 141.91768155 134 137 C134.25136033 133.79083829 134.25136033 133.79083829 134 131 C131.36 131 128.72 131 126 131 Z M148 131 C147.67 132.32 147.34 133.64 147 135 C144.96232394 140.58363194 142.89036607 145.3853816 138 149 C134.71864871 150.24499811 131.41172897 151.18515988 128 152 C128 152.33 128 152.66 128 153 C131.89526499 153.1746354 135.7895219 153.28096492 139.6875 153.375 C140.79029297 153.42527344 141.89308594 153.47554687 143.02929688 153.52734375 C148.70871731 153.80038054 148.70871731 153.80038054 153.82373047 151.77392578 C158.93280153 145.82858734 160.3243985 138.56673683 161 131 C156.71 131 152.42 131 148 131 Z M-179 137 C-179 140.63 -179 144.26 -179 148 C-174.52116304 147.55296014 -174.52116304 147.55296014 -171 145 C-170.58333333 142 -170.58333333 142 -171 139 C-174.09245003 136.53774984 -174.09245003 136.53774984 -179 137 Z M-204 157 C-204 159.64 -204 162.28 -204 165 C-194.1 165 -184.2 165 -174 165 C-174 162.36 -174 159.72 -174 157 C-183.9 157 -193.8 157 -204 157 Z M-169 157 C-169 159.64 -169 162.28 -169 165 C-166.41168385 164.43418205 -163.83081802 163.84832113 -161.25 163.25 C-160.15558594 163.01410156 -160.15558594 163.01410156 -159.0390625 162.7734375 C-158.33007812 162.60585937 -157.62109375 162.43828125 -156.890625 162.265625 C-156.24125977 162.11899414 -155.59189453 161.97236328 -154.92285156 161.82128906 C-152.37938212 160.87608774 -152.37938212 160.87608774 -149 157 C-155.6 157 -162.2 157 -169 157 Z M-139 162 C-148.17695583 169.05303155 -157.78452194 169.40142111 -169 170 C-169 172.64 -169 175.28 -169 178 C-142.27 178 -115.54 178 -88 178 C-88 176.02 -88 174.04 -88 172 C-88.96679688 171.90203125 -89.93359375 171.8040625 -90.9296875 171.703125 C-101.6802758 170.46840397 -110.00015283 169.17490619 -117.9375 161.25 C-121.53958483 157.80699778 -123.78285101 156.3272647 -128.8125 156.125 C-133.840371 156.56863568 -135.77138174 158.07330212 -139 162 Z M-108 157 C-102.74563999 162.25436001 -99.03095159 165.16110971 -91.5625 165.1875 C-90.386875 165.125625 -89.21125 165.06375 -88 165 C-88 162.36 -88 159.72 -88 157 C-94.6 157 -101.2 157 -108 157 Z M-84 157 C-84 159.64 -84 162.28 -84 165 C-77.9524662 165.51468373 -73.176198 164.25017084 -68 161 C-67.01 159.68 -66.02 158.36 -65 157 C-71.27 157 -77.54 157 -84 157 Z M-53.1875 159.375 C-55.18939691 161.74264063 -55.18939691 161.74264063 -55 164 C-55.73347656 164.28875 -56.46695313 164.5775 -57.22265625 164.875 C-58.89002774 165.55039098 -60.54798573 166.2509559 -62.18359375 167 C-69.2741887 170.14591388 -76.32523588 171.15953592 -84 172 C-84 173.98 -84 175.96 -84 178 C-73.45618688 178.02312343 -62.91237975 178.04091509 -52.36854649 178.05181217 C-47.47314626 178.057041 -42.57776332 178.06413864 -37.68237305 178.07543945 C-32.96212022 178.08626834 -28.24188408 178.09227684 -23.5216198 178.09487724 C-21.71661046 178.09673149 -19.91160208 178.10035209 -18.10659981 178.10573006 C-15.58740356 178.11294052 -13.0682771 178.11399094 -10.54907227 178.11352539 C-9.41835045 178.1189183 -9.41835045 178.1189183 -8.26478577 178.12442017 C-4.84445769 178.42559536 -4.84445769 178.42559536 -2 177 C-1.95653201 175.00047242 -1.960008 172.99960012 -2 171 C-2 170.01 -2 169.02 -2 168 C-2.99 168.66 -3.98 169.32 -5 170 C-7.95507812 170.24291992 -7.95507812 170.24291992 -11.53125 170.23046875 C-12.81644531 170.22853516 -14.10164063 170.22660156 -15.42578125 170.22460938 C-16.09432129 170.21840576 -16.76286133 170.21220215 -17.45166016 170.20581055 C-19.49264017 170.18756579 -21.53316572 170.18530091 -23.57421875 170.18554688 C-33.57882801 170.14039066 -33.57882801 170.14039066 -37 169 C-39.13586678 165.79619983 -39.23132175 164.98060033 -39.125 161.3125 C-39.10695312 160.50425781 -39.08890625 159.69601563 -39.0703125 158.86328125 C-39.04710937 158.24839844 -39.02390625 157.63351563 -39 157 C-46.56839303 156.25767609 -46.56839303 156.25767609 -53.1875 159.375 Z M-26 157 C-26 159.64 -26 162.28 -26 165 C-22.04 165 -18.08 165 -14 165 C-14 162.36 -14 159.72 -14 157 C-17.96 157 -21.92 157 -26 157 Z M3 157 C3 163.93 3 170.86 3 178 C30.06 178 57.12 178 85 178 C85 171.07 85 164.14 85 157 C84.01 157 83.02 157 82 157 C82.020625 158.051875 82.04125 159.10375 82.0625 160.1875 C82.01072932 163.3455115 81.67024271 165.94432655 81 169 C67.9251454 171.55788157 54.90555544 171.10054351 41.64453125 170.77856445 C37.8491174 170.68687473 34.05365423 170.61258458 30.2578125 170.54101562 C27.83591642 170.49058571 25.41404024 170.4391886 22.9921875 170.38671875 C21.29689407 170.35223885 21.29689407 170.35223885 19.56735229 170.31706238 C18.51500397 170.29066177 17.46265564 170.26426117 16.37841797 170.23706055 C15.45769501 170.21548386 14.53697205 170.19390717 13.58834839 170.17167664 C11 170 11 170 6 169 C6 165.04 6 161.08 6 157 C5.01 157 4.02 157 3 157 Z M19 157 C19 159.64 19 162.28 19 165 C35.17 165 51.34 165 68 165 C68 162.36 68 159.72 68 157 C51.83 157 35.66 157 19 157 Z M99 157 C99 159.64 99 162.28 99 165 C124.01894544 166.45070777 124.01894544 166.45070777 147 158 C147 157.67 147 157.34 147 157 C131.16 157 115.32 157 99 157 Z M158.75 160.3125 C147.55015579 169.28685012 133.99900953 170.18169768 120.15234375 170.09765625 C119.25504044 170.0962413 118.35773712 170.09482635 117.4332428 170.09336853 C114.60129286 170.0878251 111.76942555 170.07528358 108.9375 170.0625 C107.00325636 170.05747767 105.06901147 170.05291606 103.13476562 170.04882812 C98.42314583 170.03787429 93.71158687 170.02064953 89 170 C89 172.64 89 175.28 89 178 C98.89189376 178.02312428 108.78378114 178.04091552 118.67569637 178.05181217 C123.2684264 178.05704082 127.861138 178.06413812 132.45385742 178.07543945 C136.88233688 178.086269 141.31079856 178.09227698 145.73929024 178.09487724 C147.43265628 178.09673137 149.12602129 178.10035175 150.81937981 178.10573006 C153.18291232 178.1129414 155.54637045 178.1139909 157.90991211 178.11352539 C158.61697296 178.11712067 159.32403381 178.12071594 160.05252075 178.12442017 C163.30638048 178.39649445 163.30638048 178.39649445 166 177 C166.08669432 175.5112814 166.10703494 174.018555 166.09765625 172.52734375 C166.09443359 171.62822266 166.09121094 170.72910156 166.08789062 169.80273438 C166.07951172 168.85720703 166.07113281 167.91167969 166.0625 166.9375 C166.05798828 165.98810547 166.05347656 165.03871094 166.04882812 164.06054688 C166.0370011 161.70696935 166.02052025 159.35351523 166 157 C162.26558132 157 161.55095605 157.94735704 158.75 160.3125 Z M-214 182 C-214 188.93 -214 195.86 -214 203 C-187.6 203 -161.2 203 -134 203 C-134 196.07 -134 189.14 -134 182 C-160.4 182 -186.8 182 -214 182 Z M-43 182 C-43 188.6 -43 195.2 -43 202 C-41.31972608 203.68027392 -39.2542922 203.12574335 -37.01127625 203.13552856 C-36.29800674 203.13350433 -35.58473724 203.1314801 -34.84985352 203.12939453 C-34.10189514 203.13114685 -33.35393677 203.13289917 -32.58331299 203.13470459 C-30.09848748 203.13912375 -27.61373254 203.13618461 -25.12890625 203.1328125 C-23.40876756 203.13348559 -21.68862896 203.13445566 -19.9684906 203.13571167 C-16.35780942 203.13718879 -12.74715293 203.13503391 -9.13647461 203.13037109 C-4.50133323 203.12467807 0.13375019 203.12795002 4.76888943 203.13394356 C8.32298725 203.13755244 11.87707128 203.136409 15.43116951 203.13381577 C17.14045277 203.13314718 18.84973727 203.13397254 20.55901909 203.13629532 C22.94619959 203.13882672 25.33328555 203.13497414 27.72045898 203.12939453 C28.43170425 203.13141876 29.14294952 203.13344299 29.87574768 203.13552856 C33.56165994 203.16891789 33.56165994 203.16891789 37 202 C37 195.4 37 188.8 37 182 C10.6 182 -15.8 182 -43 182 Z M-49 182 C-75.4 182.33 -101.8 182.66 -129 183 C-129 189.6 -129 196.2 -129 203 C-118.45618307 203.02255102 -107.91238203 203.04091508 -97.36854649 203.05181217 C-92.47314626 203.057041 -87.57776332 203.06413864 -82.68237305 203.07543945 C-77.96212022 203.08626834 -73.24188408 203.09227684 -68.5216198 203.09487724 C-66.71661046 203.09673149 -64.91160208 203.10035209 -63.10659981 203.10573006 C-60.58740356 203.11294052 -58.0682771 203.11399094 -55.54907227 203.11352539 C-54.41835045 203.1189183 -54.41835045 203.1189183 -53.26478577 203.12442017 C-49.84445769 203.42559536 -49.84445769 203.42559536 -47 202 C-46.87286046 199.38329079 -46.81478976 196.80469287 -46.8125 194.1875 C-46.80025391 193.46240234 -46.78800781 192.73730469 -46.77539062 191.99023438 C-46.76402146 187.84806983 -47.10068175 185.7986365 -49 182 Z M41 183 C41 189.6 41 196.2 41 203 C67.4 203 93.8 203 121 203 C121 196.4 121 189.8 121 183 C94.6 183 68.2 183 41 183 Z M-169 208 C-169 214.93 -169 221.86 -169 229 C-142.27 229 -115.54 229 -88 229 C-88 222.07 -88 215.14 -88 208 C-114.73 208 -141.46 208 -169 208 Z M-84 208 C-84 214.93 -84 221.86 -84 229 C-56.61 229 -29.22 229 -1 229 C-1 222.07 -1 215.14 -1 208 C-28.39 208 -55.78 208 -84 208 Z M3 208 C3 214.93 3 221.86 3 229 C30.06 229 57.12 229 85 229 C85 222.07 85 215.14 85 208 C57.94 208 30.88 208 3 208 Z M89 208 C89 214.93 89 221.86 89 229 C114.41 229 139.82 229 166 229 C166 222.07 166 215.14 166 208 C140.59 208 115.18 208 89 208 Z " fill="#FAFAFA" transform="translate(273,52)"/>
<path d="M0 0 C11.88 0 23.76 0 36 0 C36 10.23 36 20.46 36 31 C37.65 30.34 39.3 29.68 41 29 C41.99 29 42.98 29 44 29 C44.33 28.34 44.66 27.68 45 27 C53.37832818 25.10811944 60.96084616 26.35139634 69 29 C69.87527344 29.28359375 70.75054688 29.5671875 71.65234375 29.859375 C74.37883194 31.18405812 75.43033412 32.451064 77.125 34.9375 C78.55001274 36.9979914 79.85432843 38.85709654 81.64453125 40.61328125 C83.56413775 42.57714381 83.57156234 44.30696327 84 47 C84.33499512 47.94496338 84.66999023 48.88992676 85.01513672 49.86352539 C86.62317592 55.43332023 86.24520546 61.18765273 86.1953125 66.93359375 C86.1924826 68.16666763 86.18965271 69.39974152 86.18673706 70.67018127 C86.1755786 74.59272125 86.15048151 78.5150295 86.125 82.4375 C86.11383396 85.10351228 86.10583976 87.76952239 86.09765625 90.43554688 C86.07735857 96.95719148 86.03820043 103.47833757 86 110 C74.12 110 62.24 110 50 110 C50.02320313 107.07253906 50.04640625 104.14507812 50.0703125 101.12890625 C50.08594455 98.26929151 50.09806904 95.40968167 50.10986328 92.55004883 C50.1198729 90.57444094 50.13348469 88.59884769 50.15087891 86.62329102 C50.17535009 83.77095918 50.18653376 80.91882453 50.1953125 78.06640625 C50.20563507 77.19415909 50.21595764 76.32191193 50.22659302 75.42323303 C50.22758484 69.9068174 50.07234357 64.18418013 48 59 C44.1496895 56.43312633 42.41430237 57.16711276 38 58 C36.85854209 63.54886654 36.78026242 69.00751932 36.68359375 74.6484375 C36.66281265 75.66096588 36.64203156 76.67349426 36.62062073 77.71670532 C36.55548402 80.93607098 36.49640768 84.15551494 36.4375 87.375 C36.39428063 89.56381003 36.35066527 91.75261227 36.30664062 93.94140625 C36.19909793 99.29419191 36.09975776 104.64704098 36 110 C24.12 110 12.24 110 0 110 C-0.99874373 73.27696138 -0.85860849 36.7220248 0 0 Z " fill="#FDFDFD" transform="translate(564,113)"/>
<path d="M0 0 C0 0.66 0 1.32 0 2 C1.08667969 2.14308594 1.08667969 2.14308594 2.1953125 2.2890625 C10.51051269 4.3968152 16.16492219 11.97429911 20.52734375 18.8984375 C25.69462068 29.78124356 27.79927189 43.56741073 24.31445312 55.31005859 C19.75807728 66.62609181 12.23881709 74.86379319 1.1328125 79.8359375 C-12.65666596 85.42926009 -26.36295602 85.16159189 -40.359375 80.15625 C-50.99046326 75.22342505 -57.51637273 67.72700438 -62.8125 57.5 C-66.78622303 45.69709649 -65.94512797 30.92790438 -60.75 19.75 C-55.49469138 10.09489811 -47.77256692 3.10602226 -37.21484375 -0.40625 C-24.34188468 -3.85720199 -12.9055898 -2.61668455 0 0 Z M-29 31 C-31.56642548 36.01619527 -31.1787866 40.64275034 -30 46 C-28.38730281 50.03174296 -27.63086795 51.57942137 -24 54 C-20.91285916 54.60124091 -18.08287023 54.63820822 -15 54 C-12.20239932 51.85911309 -10.57160548 49.14321095 -9 46 C-8.4649914 40.63237273 -8.33824766 36.30068563 -10.8125 31.4375 C-13.83458609 28.07003264 -15.31507557 27.06628301 -19.875 26.625 C-24.05595045 26.74796913 -26.15398758 27.81916259 -29 31 Z " fill="#FDFDFC" transform="translate(535,142)"/>
<path d="M0 0 C2.59676063 2.47586861 4.29249547 4.91618368 6.09765625 8 C6.75765625 8.33 7.41765625 8.66 8.09765625 9 C12.7890223 17.63919484 13.15242439 27.382714 13.09765625 37 C12.76765625 37.33 12.43765625 37.66 12.09765625 38 C12.15050781 38.85722656 12.20335937 39.71445313 12.2578125 40.59765625 C12.05889191 44.82350596 10.54974664 47.81782601 8.53515625 51.4375 C8.16946533 52.10128662 7.80377441 52.76507324 7.42700195 53.44897461 C1.64877888 63.61128196 -6.15552665 69.65635346 -17.453125 73.07421875 C-32.316154 76.48515272 -46.75301175 75.13298783 -59.9453125 67.30078125 C-67.63162074 62.19191769 -74.17978373 53.06869798 -76.46875 44.09765625 C-78.44293632 29.99378462 -77.83958138 16.7632798 -69.390625 4.91796875 C-67.70133011 2.74095092 -66.03631909 0.75290831 -63.90234375 -1 C-63.24234375 -1 -62.58234375 -1 -61.90234375 -1 C-61.90234375 -1.66 -61.90234375 -2.32 -61.90234375 -3 C-41.21035921 -14.7610976 -18.9181496 -15.83008398 0 0 Z M-37.90234375 19 C-37.90234375 19.66 -37.90234375 20.32 -37.90234375 21 C-38.89234375 21.33 -39.88234375 21.66 -40.90234375 22 C-43.2737977 27.52935945 -43.24424919 33.2489767 -41.90234375 39 C-40.08125109 41.76101146 -38.86033278 43.52100548 -35.90234375 45 C-30.51214109 45.43035319 -30.51214109 45.43035319 -25.52734375 43.8125 C-22.12282322 40.01515017 -21.60885031 35.96704778 -21.58984375 31 C-21.57308594 29.989375 -21.55632813 28.97875 -21.5390625 27.9375 C-21.95387189 24.58334236 -22.94008031 22.72402665 -24.90234375 20 C-28.58644098 17.23692708 -33.79984921 16.94875273 -37.90234375 19 Z " fill="#FDFDFC" transform="translate(730.90234375,151)"/>
<path d="M0 0 C1.1859375 0.01804688 2.371875 0.03609375 3.59375 0.0546875 C12.20795343 0.3845106 20.31283187 1.97183704 28 6 C29.390625 8.16796875 29.390625 8.16796875 30 10 C29.34 10.33 28.68 10.66 28 11 C27.61070799 12.65449105 27.291224 14.32546201 27 16 C25.66552341 21.44055839 23.62592755 26.09231987 21 31 C20.39414062 30.73445313 19.78828125 30.46890625 19.1640625 30.1953125 C10.74186051 26.64503043 -0.46476307 22.38590523 -9.5 26 C-9.995 26.33 -10.49 26.66 -11 27 C-10.505 28.485 -10.505 28.485 -10 30 C-9.01 29.67 -8.02 29.34 -7 29 C-6.67 29.33 -6.34 29.66 -6 30 C-4.48795398 30.29522946 -2.9659336 30.53977292 -1.44140625 30.76171875 C21.55925437 34.33731905 21.55925437 34.33731905 29.5625 43.9375 C32.02672349 47.6025986 32.84327749 50.53340861 33 55 C33.04898438 55.7115625 33.09796875 56.423125 33.1484375 57.15625 C33.39963507 62.79853389 32.25338953 66.83598234 30 72 C29.34 72 28.68 72 28 72 C27.79375 72.556875 27.5875 73.11375 27.375 73.6875 C23.38524947 80.39753498 16.36285073 83.15756835 9.125 85.125 C-1.39754353 87.55795804 -11.82010753 87.46223841 -22.4375 85.75 C-23.26572266 85.61795166 -24.09394531 85.48590332 -24.94726562 85.34985352 C-32.28959817 84.09753305 -38.76395279 82.1573648 -45 78 C-44.36154407 73.4115365 -43.21263489 69.24736813 -41.6875 64.875 C-41.07455078 63.07675781 -41.07455078 63.07675781 -40.44921875 61.2421875 C-39.01307538 58.0292522 -37.64719569 56.26902488 -35 54 C-34.48953125 54.25394531 -33.9790625 54.50789063 -33.453125 54.76953125 C-23.32787772 59.5628664 -13.24073059 61.9519837 -2 61 C-1.34 60.67 -0.68 60.34 0 60 C0 59.34 0 58.68 0 58 C-0.83023682 57.84180786 -0.83023682 57.84180786 -1.67724609 57.68041992 C-32.35079867 51.79786452 -32.35079867 51.79786452 -40.375 43.5625 C-44.4816479 37.08663216 -44.78085133 30.50002885 -44 23 C-41.63721091 14.49395926 -36.47640876 9.48584526 -29 5 C-19.11102929 0.32521384 -10.79178847 -0.31865517 0 0 Z " fill="#FCFCFC" transform="translate(961,139)"/>
<path d="M0 0 C0 0.66 0 1.32 0 2 C1.32 2 2.64 2 4 2 C4.99 2.99 4.99 2.99 6 4 C6.50015625 4.3815625 7.0003125 4.763125 7.515625 5.15625 C14.20136157 10.33619005 18.34038944 16.70194719 20 25 C6.14 30.94 6.14 30.94 -8 37 C-10 35 -10 35 -10.9375 31.9375 C-11.288125 30.968125 -11.63875 29.99875 -12 29 C-15.7361325 27.7546225 -19.08939105 27.50912858 -23 28 C-24.87890434 29.37506099 -24.87890434 29.37506099 -26 31 C-26.66 31 -27.32 31 -28 31 C-29.60917544 40.44807642 -29.60917544 40.44807642 -27.125 49.3125 C-25.27958729 52.03696671 -25.27958729 52.03696671 -23 53 C-17.39296787 53.21377721 -17.39296787 53.21377721 -12 52 C-10.83046584 49.57616923 -10.83046584 49.57616923 -10 47 C-9.505 46.01 -9.505 46.01 -9 45 C-2.8347465 45.60813725 2.57693377 48.04076962 8.25 50.375 C9.25546875 50.77460938 10.2609375 51.17421875 11.296875 51.5859375 C12.2559375 51.9778125 13.215 52.3696875 14.203125 52.7734375 C15.07614258 53.12841309 15.94916016 53.48338867 16.84863281 53.84912109 C19 55 19 55 21 58 C14.18125129 70.05975503 8.47573309 77.62295161 -5.2890625 82.0546875 C-17.92653452 85.27391722 -31.59393656 84.67082344 -43.1796875 78.17578125 C-50.07779825 73.7201346 -50.07779825 73.7201346 -53 71 C-53 70.34 -53 69.68 -53 69 C-53.66 69 -54.32 69 -55 69 C-63.60208723 57.73821449 -65.16214064 45.72086878 -64 32 C-62.43133782 22.0782117 -57.15138099 12.88645001 -49.31640625 6.59765625 C-33.6637598 -4.19818253 -17.93437027 -4.08681446 0 0 Z " fill="#FDFDFC" transform="translate(894,142)"/>
<path d="M0 0 C11.88 0 23.76 0 36 0 C36 36.3 36 72.6 36 110 C24.12 110 12.24 110 0 110 C-0.84623919 85.89785425 -1.02286705 61.93685074 -0.60510254 37.82958984 C-0.51951522 32.77282616 -0.44578882 27.71587512 -0.36989594 22.65895844 C-0.25530078 15.10579911 -0.12636958 7.55301244 0 0 Z " fill="#FDFDFD" transform="translate(747,113)"/>
<path d="M0 0 C11.88 0 23.76 0 36 0 C36 26.73 36 53.46 36 81 C24.45 81 12.9 81 1 81 C-0.02485228 64.44096947 -0.12268169 47.93171564 -0.06866455 31.34942627 C-0.05824814 27.80196761 -0.05377292 24.25450106 -0.04882812 20.70703125 C-0.03878976 13.80464807 -0.019197 6.90238774 0 0 Z " fill="#FDFDFD" transform="translate(790,142)"/>
<path d="M0 0 C0 0.66 0 1.32 0 2 C0.598125 2.04125 1.19625 2.0825 1.8125 2.125 C4 3 4 3 5.625 5.625 C9.67896679 15.57564576 9.67896679 15.57564576 8 21 C7.85949219 21.69222656 7.71898437 22.38445312 7.57421875 23.09765625 C6.33519118 28.1464829 4.81027605 30.5871556 0.4375 33.5 C-5.83294415 37.20666649 -10.6782529 37.80842377 -18 37 C-23.69860511 34.84326854 -27.50828676 30.86723664 -31 26 C-32.97784396 20.06646813 -33.00831235 13.36146881 -30.375 7.625 C-27.71509079 3.03830144 -24.29762659 0.30405833 -19.6875 -2.3125 C-12.46885615 -4.15912982 -6.71817892 -2.93156898 0 0 Z " fill="#FCFCFC" transform="translate(820,98)"/>
<path d="M0 0 C0.66 1.32 1.32 2.64 2 4 C2.33 2.68 2.66 1.36 3 0 C3.99 0.33 4.98 0.66 6 1 C5.67 7.6 5.34 14.2 5 21 C32.06 21 59.12 21 87 21 C85.02 21.495 85.02 21.495 83 22 C83 22.66 83 23.32 83 24 C96.2 24 109.4 24 123 24 C123 23.34 123 22.68 123 22 C122.34 21.67 121.68 21.34 121 21 C122.65 21 124.3 21 126 21 C126.625 22.875 126.625 22.875 127 25 C125 27 125 27 121.72238159 27.20254517 C120.29119529 27.19054984 118.86007919 27.16720101 117.42919922 27.13525391 C116.25833267 27.12106163 116.25833267 27.12106163 115.06381226 27.10658264 C112.47720252 27.07283639 109.89106542 27.02474044 107.3046875 26.9765625 C105.51393885 26.95040242 103.72317695 26.92513485 101.93240356 26.90072632 C97.21400219 26.83400625 92.49587855 26.75512856 87.77770996 26.67376709 C82.96519652 26.59291427 78.15251991 26.52349235 73.33984375 26.453125 C63.89302466 26.31330714 54.44650566 26.15959706 45 26 C45 32.93 45 39.86 45 47 C43.515 46.01 43.515 46.01 42 45 C41.67 45.99 41.34 46.98 41 48 C40.34 48 39.68 48 39 48 C38.67 46.35 38.34 44.7 38 43 C38.33 43 38.66 43 39 43 C39.33 37.39 39.66 31.78 40 26 C6.67 26 -26.66 26 -61 26 C-61 24.02 -61 22.04 -61 20 C-30.805 20.495 -30.805 20.495 0 21 C0 14.07 0 7.14 0 0 Z " fill="#F6F6F6" transform="translate(99,106)"/>
<path d="M0 0 C0.66 0.33 1.32 0.66 2 1 C1.67 1.33 1.34 1.66 1 2 C0.84417697 3.34015221 0.74955858 4.68758903 0.68359375 6.03515625 C0.62075195 7.24848633 0.62075195 7.24848633 0.55664062 8.48632812 C0.51732422 9.33646484 0.47800781 10.18660156 0.4375 11.0625 C0.37272461 12.34350586 0.37272461 12.34350586 0.30664062 13.65039062 C0.20023298 15.76672037 0.09958269 17.88333813 0 20 C-0.66 20 -1.32 20 -2 20 C-2 20.66 -2 21.32 -2 22 C-1.34 22 -0.68 22 0 22 C0 28.6 0 35.2 0 42 C-0.66 42 -1.32 42 -2 42 C-2.19778547 40.14690227 -2.38269708 38.29242889 -2.5625 36.4375 C-2.71912109 34.88869141 -2.71912109 34.88869141 -2.87890625 33.30859375 C-3 30 -3 30 -2 23 C-15.53 23 -29.06 23 -43 23 C-43 22.01 -43 21.02 -43 20 C-42.34 20.33 -41.68 20.66 -41 21 C-40.34 20.67 -39.68 20.34 -39 20 C-39.99 19.34 -40.98 18.68 -42 18 C-28.55576297 17.13047223 -15.43802009 17.00174708 -2 18 C-2.10699219 17.11957031 -2.21398437 16.23914063 -2.32421875 15.33203125 C-2.44410156 14.17058594 -2.56398438 13.00914062 -2.6875 11.8125 C-2.81511719 10.66394531 -2.94273437 9.51539063 -3.07421875 8.33203125 C-2.99142924 4.61521817 -2.16836289 2.95989896 0 0 Z " fill="#F3F3F3" transform="translate(360,135)"/>
<path d="M0 0 C1.65 0 3.3 0 5 0 C5.625 1.875 5.625 1.875 6 4 C3.49981588 6.50018412 2.02142703 6.23513727 -1.38920593 6.24884033 C-2.51453484 6.2380545 -2.51453484 6.2380545 -3.66259766 6.22705078 C-4.45292892 6.22734283 -5.24326019 6.22763489 -6.05754089 6.22793579 C-8.67649214 6.22653962 -11.2951608 6.21096505 -13.9140625 6.1953125 C-15.72724248 6.19158339 -17.54042447 6.18873594 -19.35360718 6.18673706 C-24.13107851 6.17909257 -28.90842867 6.15943712 -33.68585205 6.1373291 C-38.55878052 6.1168882 -43.43172853 6.10773911 -48.3046875 6.09765625 C-57.86984497 6.07619197 -67.43491242 6.04204623 -77 6 C-77 5.01 -77 4.02 -77 3 C-50.93 3 -24.86 3 2 3 C2 2.34 2 1.68 2 1 C1.01 0.505 1.01 0.505 0 0 Z " fill="#E7E7E7" transform="translate(220,127)"/>
<path d="M0 0 C0.33 0 0.66 0 1 0 C1.19430855 2.6246601 1.38073238 5.24946765 1.5625 7.875 C1.64661133 8.99455078 1.64661133 8.99455078 1.73242188 10.13671875 C2.11328125 15.7734375 2.11328125 15.7734375 1 18 C7.93 18 14.86 18 22 18 C22 19.65 22 21.3 22 23 C0.55 23 -20.9 23 -43 23 C-43.33 22.34 -43.66 21.68 -44 21 C-22.55 21 -1.1 21 21 21 C21 20.34 21 19.68 21 19 C14.07 19 7.14 19 0 19 C-1.0359636 14.85614558 -0.90660941 11.43468682 -0.5625 7.25 C-0.51029297 6.55261719 -0.45808594 5.85523437 -0.40429688 5.13671875 C-0.27525928 3.42403797 -0.13840386 1.71194934 0 0 Z " fill="#E7E7E7" transform="translate(442,109)"/>
<path d="M0 0 C0 0.99 0 1.98 0 3 C-26.73 3 -53.46 3 -81 3 C-81 2.34 -81 1.68 -81 1 C-70.88187794 0.86939007 -60.76375325 0.73898674 -50.64562511 0.60884857 C-45.94758664 0.54841643 -41.24954912 0.48791261 -36.55151367 0.42724609 C-32.01928735 0.36872332 -27.48705867 0.31038737 -22.95482826 0.25218201 C-21.22404202 0.22992127 -19.49325664 0.20759274 -17.76247215 0.18519592 C-15.3418945 0.15388447 -12.92131389 0.12281211 -10.50073242 0.09179688 C-9.78216064 0.08244614 -9.06358887 0.0730954 -8.32324219 0.0634613 C-5.54854603 0.02811041 -2.77496066 0 0 0 Z " fill="#EBEBEB" transform="translate(311,254)"/>
<path d="M0 0 C0 0.66 0 1.32 0 2 C-27.06 2 -54.12 2 -82 2 C-81.67 1.34 -81.34 0.68 -81 0 C-70.73430173 -0.15366806 -60.46854049 -0.30184982 -50.20266151 -0.4429636 C-45.43617024 -0.50865713 -40.66972188 -0.57626382 -35.90332031 -0.64819336 C-31.30631258 -0.71749701 -26.70926009 -0.78183979 -22.11213303 -0.84269524 C-20.35537556 -0.86683193 -18.59864202 -0.89277767 -16.84193802 -0.92053413 C-14.38766473 -0.95900798 -11.93338629 -0.99113712 -9.47900391 -1.02172852 C-8.74748611 -1.03467453 -8.01596832 -1.04762054 -7.26228333 -1.06095886 C-2.22810432 -1.11405216 -2.22810432 -1.11405216 0 0 Z " fill="#EBEBEB" transform="translate(396,255)"/>
<path d="M0 0 C-3.8608106 2.57387373 -7.03014905 2.26958167 -11.50390625 2.23046875 C-12.36307648 2.23037308 -13.2222467 2.2302774 -14.10745239 2.23017883 C-16.92594028 2.22643886 -19.74408387 2.20746412 -22.5625 2.1875 C-24.50040569 2.18063936 -26.43831267 2.17413146 -28.3762207 2.16796875 C-45.59355631 2.09023812 -62.79531977 1.64760835 -80 1 C-79.67 0.34 -79.34 -0.32 -79 -1 C-68.99516289 -1.1768084 -58.99021095 -1.34277456 -48.98496437 -1.49477577 C-44.33947656 -1.56569415 -39.69411277 -1.64039202 -35.04882812 -1.72363281 C-30.56858227 -1.80377871 -26.08828131 -1.87412026 -21.60776901 -1.93757248 C-19.89563672 -1.96356069 -18.18355495 -1.99312332 -16.47154617 -2.02626419 C-14.07953463 -2.07196678 -11.68766132 -2.10512771 -9.29541016 -2.13525391 C-8.58259384 -2.1517952 -7.86977753 -2.16833649 -7.13536072 -2.18537903 C-2.22810432 -2.22810432 -2.22810432 -2.22810432 0 0 Z " fill="#E7E7E7" transform="translate(310,131)"/>
<path d="M0 0 C1.37488287 -0.02749766 2.74993391 -0.0466164 4.125 -0.0625 C5.27355469 -0.07990234 5.27355469 -0.07990234 6.4453125 -0.09765625 C9 0 9 0 11.42578125 0.5 C16.53617509 1.21489662 21.58862591 1.12218061 26.7421875 1.09765625 C27.86569611 1.0962413 28.98920471 1.09482635 30.14675903 1.09336853 C33.72286683 1.08778664 37.29891123 1.07523741 40.875 1.0625 C43.30468659 1.05748266 45.73437417 1.05292016 48.1640625 1.04882812 C54.10939651 1.03782314 60.05469372 1.02110301 66 1 C66.495 1.99 66.495 1.99 67 3 C60.07177819 4.08668685 53.3300372 4.07571017 46.328125 3.94921875 C45.1281488 3.9303511 43.92817261 3.91148346 42.6918335 3.89204407 C40.16706384 3.85032889 37.64234223 3.80560974 35.11767578 3.75805664 C31.24911762 3.6874839 27.38054949 3.63332792 23.51171875 3.58007812 C21.05466998 3.53745675 18.59763771 3.49387046 16.140625 3.44921875 C14.40465057 3.42718636 14.40465057 3.42718636 12.63360596 3.40470886 C11.55858826 3.38161148 10.48357056 3.3585141 9.37597656 3.3347168 C8.43191956 3.31837692 7.48786255 3.30203705 6.51519775 3.28520203 C3.91160557 2.98997682 2.24302071 2.31976877 0 1 C0 0.67 0 0.34 0 0 Z " fill="#EBEBEB" transform="translate(280,220)"/>
<path d="M0 0 C4.455 0.99 4.455 0.99 9 2 C9 2.33 9 2.66 9 3 C6.36 3 3.72 3 1 3 C1 7.29 1 11.58 1 16 C4.63 16 8.26 16 12 16 C11.01 16.33 10.02 16.66 9 17 C9 17.66 9 18.32 9 19 C9.99 19.33 10.98 19.66 12 20 C12 20.33 12 20.66 12 21 C8.05523353 21.80688405 6.00001715 22.00000429 2 21 C2 27.27 2 33.54 2 40 C1.34 40 0.68 40 0 40 C0.00523682 39.41508789 0.01047363 38.83017578 0.01586914 38.22753906 C0.03670158 35.56837037 0.04968007 32.90921889 0.0625 30.25 C0.07087891 29.32960937 0.07925781 28.40921875 0.08789062 27.4609375 C0.09111328 26.57148438 0.09433594 25.68203125 0.09765625 24.765625 C0.10289307 23.94868164 0.10812988 23.13173828 0.11352539 22.29003906 C0.00252062 20.050846 -0.43301572 18.16043889 -1 16 C-1.09318736 13.62646314 -1.129959 11.25036029 -1.125 8.875 C-1.12757813 7.63492188 -1.13015625 6.39484375 -1.1328125 5.1171875 C-1 2 -1 2 0 0 Z " fill="#F8F8F8" transform="translate(246,137)"/>
<path d="M0 0 C0.33 0 0.66 0 1 0 C1 12.21 1 24.42 1 37 C0.01 37.495 0.01 37.495 -1 38 C-1.19425873 35.20865148 -1.38069517 32.41716313 -1.5625 29.625 C-1.61857422 28.8309375 -1.67464844 28.036875 -1.73242188 27.21875 C-2.11328125 21.2265625 -2.11328125 21.2265625 -1 19 C-2.2375 19.20625 -3.475 19.4125 -4.75 19.625 C-8.11909835 20.06107124 -10.12841921 20.03403639 -13 18 C-10.00519083 17.1276588 -7.36424089 16.89170234 -4.25 16.9375 C-3.45078125 16.94652344 -2.6515625 16.95554688 -1.828125 16.96484375 C-1.22484375 16.97644531 -0.6215625 16.98804688 0 17 C-0.33 16.34 -0.66 15.68 -1 15 C-1.28097181 13.02752113 -1.50234829 11.04626836 -1.6875 9.0625 C-1.79449219 8.00160156 -1.90148437 6.94070312 -2.01171875 5.84765625 C-2 3 -2 3 0 0 Z " fill="#F0F0F0" transform="translate(304,139)"/>
<path d="M0 0 C0.86140091 0.0028299 1.72280182 0.00565979 2.61030579 0.00857544 C5.36143894 0.01977013 8.1122465 0.04487329 10.86328125 0.0703125 C12.72851092 0.08034323 14.5937457 0.08946891 16.45898438 0.09765625 C21.03137545 0.11970712 25.60352314 0.15423201 30.17578125 0.1953125 C30.17578125 1.1853125 30.17578125 2.1753125 30.17578125 3.1953125 C16.31578125 2.8653125 2.45578125 2.5353125 -11.82421875 2.1953125 C-7.89117403 -0.42671731 -4.55796806 -0.05617277 0 0 Z " fill="#EFEFEF" transform="translate(364.82421875,232.8046875)"/>
<path d="M0 0 C1.95292969 0.07250977 1.95292969 0.07250977 3.9453125 0.14648438 C5.32552554 0.20301019 6.70573382 0.25965233 8.0859375 0.31640625 C9.47393969 0.36962918 10.86196047 0.42236957 12.25 0.47460938 C15.65385891 0.60461788 19.05744867 0.73959508 22.4609375 0.87890625 C22.1309375 1.53890625 21.8009375 2.19890625 21.4609375 2.87890625 C8.9209375 2.87890625 -3.6190625 2.87890625 -16.5390625 2.87890625 C-16.5390625 2.21890625 -16.5390625 1.55890625 -16.5390625 0.87890625 C-14.52083333 0.91145833 -12.50260417 0.94401042 -10.484375 0.9765625 C-6.81612419 0.79241336 -3.94914915 -0.15453192 0 0 Z " fill="#EAEAEA" transform="translate(77.5390625,220.12109375)"/>
<path d="M0 0 C1.65 0 3.3 0 5 0 C5 7.92 5 15.84 5 24 C2.56085508 21.56085508 2.71337477 20.78553569 2.5859375 17.4296875 C2.54726562 16.53378906 2.50859375 15.63789062 2.46875 14.71484375 C2.4378125 13.77769531 2.406875 12.84054688 2.375 11.875 C2.33632812 10.93011719 2.29765625 9.98523437 2.2578125 9.01171875 C2.16338654 6.67467625 2.07781606 4.33764499 2 2 C2.01571045 2.93851807 2.01571045 2.93851807 2.03173828 3.89599609 C2.07323191 6.7222901 2.09930473 9.54852011 2.125 12.375 C2.14175781 13.35984375 2.15851563 14.3446875 2.17578125 15.359375 C2.18222656 16.30039063 2.18867187 17.24140625 2.1953125 18.2109375 C2.20578613 19.08024902 2.21625977 19.94956055 2.22705078 20.84521484 C2 23 2 23 0 25 C0 16.75 0 8.5 0 0 Z " fill="#EDEDED" transform="translate(99,53)"/>
<path d="M0 0 C7.92 0 15.84 0 24 0 C25.18681726 3.56045177 25.09689832 6.43808337 25.0625 10.1875 C25.05347656 11.45980469 25.04445313 12.73210937 25.03515625 14.04296875 C25.02355469 15.01878906 25.01195312 15.99460937 25 17 C24.01 17.33 23.02 17.66 22 18 C22 12.72 22 7.44 22 2 C14.74 1.67 7.48 1.34 0 1 C0 0.67 0 0.34 0 0 Z " fill="#F2F2F2" transform="translate(248,106)"/>
<path d="M0 0 C5.28 0 10.56 0 16 0 C15.67 1.65 15.34 3.3 15 5 C8.4 5.33 1.8 5.66 -5 6 C-5 5.01 -5 4.02 -5 3 C1.6 3 8.2 3 15 3 C15 2.34 15 1.68 15 1 C10.05 1 5.1 1 0 1 C0 0.67 0 0.34 0 0 Z " fill="#EDEDED" transform="translate(448,153)"/>
<path d="M0 0 C0.99 0.33 1.98 0.66 3 1 C3 4.96 3 8.92 3 13 C2.67 13 2.34 13 2 13 C1.67 9.7 1.34 6.4 1 3 C0.8312461 5.39570271 0.66493164 7.79153363 0.5 10.1875 C0.45230469 10.86103516 0.40460938 11.53457031 0.35546875 12.22851562 C0.10976179 15.82636752 -0.05601984 19.39372306 0 23 C-0.99 23 -1.98 23 -3 23 C-2.8904307 19.54099522 -2.75973152 16.08310891 -2.625 12.625 C-2.5940625 11.64015625 -2.563125 10.6553125 -2.53125 9.640625 C-2.49257813 8.69960938 -2.45390625 7.75859375 -2.4140625 6.7890625 C-2.3826416 5.91975098 -2.3512207 5.05043945 -2.31884766 4.15478516 C-2 2 -2 2 0 0 Z " fill="#EDEDED" transform="translate(273,52)"/>
<path d="M0 0 C1.65 0 3.3 0 5 0 C5.88277755 4.51815281 6.10589503 8.77512694 6.0625 13.375 C6.05347656 14.62023437 6.04445312 15.86546875 6.03515625 17.1484375 C6.02355469 18.08945313 6.01195312 19.03046875 6 20 C5.34 20.33 4.68 20.66 4 21 C3.67 15.72 3.34 10.44 3 5 C2.01 5.99 1.02 6.98 0 8 C0 5.36 0 2.72 0 0 Z " fill="#F4F4F4" transform="translate(225,81)"/>
<path d="M0 0 C-0.33 0.66 -0.66 1.32 -1 2 C-2.99609375 2.44921875 -2.99609375 2.44921875 -5.4375 2.6875 C-6.24058594 2.77386719 -7.04367187 2.86023438 -7.87109375 2.94921875 C-10 3 -10 3 -12 2 C-12 8.27 -12 14.54 -12 21 C-12.33 21 -12.66 21 -13 21 C-13 14.4 -13 7.8 -13 1 C-7.34968203 -0.88343932 -5.51445885 -1.10289177 0 0 Z " fill="#EFEFEF" transform="translate(384,156)"/>
<path d="M0 0 C0.66 0 1.32 0 2 0 C3.28675561 3.86026684 3.22328879 7.53912367 3.25 11.5625 C3.270625 12.34302734 3.29125 13.12355469 3.3125 13.92773438 C3.328125 16.19140625 3.328125 16.19140625 3 20 C2.01 20.66 1.02 21.32 0 22 C0 14.74 0 7.48 0 0 Z " fill="#EFEFEF" transform="translate(271,183)"/>
<path d="M0 0 C1.37478516 0.01740234 1.37478516 0.01740234 2.77734375 0.03515625 C3.69644531 0.04417969 4.61554688 0.05320313 5.5625 0.0625 C6.27277344 0.07410156 6.98304688 0.08570313 7.71484375 0.09765625 C8.04484375 0.75765625 8.37484375 1.41765625 8.71484375 2.09765625 C4.77007728 2.9045403 2.7148609 3.09766054 -1.28515625 2.09765625 C-1.28515625 8.36765625 -1.28515625 14.63765625 -1.28515625 21.09765625 C-1.94515625 21.09765625 -2.60515625 21.09765625 -3.28515625 21.09765625 C-3.31403771 17.78517438 -3.33191424 14.47272458 -3.34765625 11.16015625 C-3.35603516 10.21462891 -3.36441406 9.26910156 -3.37304688 8.29492188 C-3.37626953 7.39580078 -3.37949219 6.49667969 -3.3828125 5.5703125 C-3.38804932 4.73765869 -3.39328613 3.90500488 -3.39868164 3.04711914 C-3.23218165 0.18797407 -2.86349048 0.12237139 0 0 Z " fill="#F2F2F2" transform="translate(249.28515625,155.90234375)"/>
<path d="M0 0 C0.99 0.33 1.98 0.66 3 1 C2.67 7.93 2.34 14.86 2 22 C1.34 21.67 0.68 21.34 0 21 C0 14.07 0 7.14 0 0 Z " fill="#EEEEEE" transform="translate(102,106)"/>
<path d="M0 0 C0.33 0 0.66 0 1 0 C1.19430855 2.6246601 1.38073238 5.24946765 1.5625 7.875 C1.61857422 8.62136719 1.67464844 9.36773437 1.73242188 10.13671875 C2.11328125 15.7734375 2.11328125 15.7734375 1 18 C7.93 18 14.86 18 22 18 C21.67 18.99 21.34 19.98 21 21 C21 20.34 21 19.68 21 19 C14.07 19 7.14 19 0 19 C-1.0359636 14.85614558 -0.90660941 11.43468682 -0.5625 7.25 C-0.48418945 6.20392578 -0.48418945 6.20392578 -0.40429688 5.13671875 C-0.27525928 3.42403797 -0.13840386 1.71194934 0 0 Z " fill="#F0F0F0" transform="translate(442,109)"/>
<path d="M0 0 C0 0.66 0 1.32 0 2 C-0.66644531 1.98839844 -1.33289063 1.97679687 -2.01953125 1.96484375 C-8.74230945 1.89902634 -15.317439 2.27616361 -22 3 C-22 2.34 -22 1.68 -22 1 C-14.35767685 -0.42924436 -7.69565547 -1.30434839 0 0 Z " fill="#F1F1F1" transform="translate(105,150)"/>
<path d="M0 0 C0.33 0 0.66 0 1 0 C1 5.61 1 11.22 1 17 C0.34 17 -0.32 17 -1 17 C-1.22262606 14.91814549 -1.42757926 12.83439574 -1.625 10.75 C-1.74101563 9.58984375 -1.85703125 8.4296875 -1.9765625 7.234375 C-1.99955595 4.06127909 -1.69705154 2.61682756 0 0 Z " fill="#F5F5F5" transform="translate(56,161)"/>
<path d="M0 0 C0.33 0 0.66 0 1 0 C1 6.6 1 13.2 1 20 C0.34 19.67 -0.32 19.34 -1 19 C-2.4569785 12.31434868 -2.07138283 6.45784058 0 0 Z " fill="#F3F3F3" transform="translate(304,182)"/>
<path d="M0 0 C0.33 0.66 0.66 1.32 1 2 C1.66 2 2.32 2 3 2 C3.08097324 4.27024968 3.13917704 6.54132075 3.1875 8.8125 C3.22230469 10.07707031 3.25710938 11.34164062 3.29296875 12.64453125 C3 16 3 16 0 19 C0 12.73 0 6.46 0 0 Z " fill="#EDEEEE" transform="translate(271,135)"/>
<path d="M0 0 C1.97909398 -0.02686553 3.95828971 -0.04633375 5.9375 -0.0625 C7.03964844 -0.07410156 8.14179688 -0.08570313 9.27734375 -0.09765625 C12 0 12 0 13 1 C13.07244053 3.01964199 13.08377188 5.04167124 13.0625 7.0625 C13.05347656 8.16722656 13.04445312 9.27195313 13.03515625 10.41015625 C13.02355469 11.26480469 13.01195312 12.11945313 13 13 C11.4284518 9.97877877 10.43625825 7.40281437 10 4 C10.33 3.01 10.66 2.02 11 1 C7.37 1 3.74 1 0 1 C0 0.67 0 0.34 0 0 Z " fill="#EFEFEF" transform="translate(158,182)"/>
<path d="M0 0 C2.375 0.3125 2.375 0.3125 5 1 C5.66 1.99 6.32 2.98 7 4 C5.68 5.65 4.36 7.3 3 9 C0 2.25 0 2.25 0 0 Z " fill="#F5F5F4" transform="translate(908,196)"/>
<path d="M0 0 C0.33 0.66 0.66 1.32 1 2 C-5.53162622 3.10914408 -11.43507888 2.78441153 -18 2 C-18 1.67 -18 1.34 -18 1 C-11.96445452 0.30739642 -6.07593562 -0.11251733 0 0 Z " fill="#E6E6E6" transform="translate(346,221)"/>
<path d="M0 0 C0.99 0.66 1.98 1.32 3 2 C2 3 2 3 -1.0625 3.0625 C-2.031875 3.041875 -3.00125 3.02125 -4 3 C-3.814375 3.721875 -3.62875 4.44375 -3.4375 5.1875 C-2.98004693 8.12826973 -3.26483643 10.14103058 -4 13 C-4.33 13 -4.66 13 -5 13 C-5 9.37 -5 5.74 -5 2 C-3.35 1.34 -1.7 0.68 0 0 Z " fill="#F1F1F1" transform="translate(212,155)"/>
<path d="M0 0 C4.455 0.99 4.455 0.99 9 2 C9 2.33 9 2.66 9 3 C6.36 3 3.72 3 1 3 C1 7.29 1 11.58 1 16 C0.67 16 0.34 16 0 16 C-0.19441368 13.7089095 -0.38033135 11.41709663 -0.5625 9.125 C-0.71912109 7.21074219 -0.71912109 7.21074219 -0.87890625 5.2578125 C-1 2 -1 2 0 0 Z " fill="#F2F2F2" transform="translate(246,137)"/>
<path d="M0 0 C0.33 0 0.66 0 1 0 C1 3.3 1 6.6 1 10 C0.34 10 -0.32 10 -1 10 C-2.62514468 11.45833358 -2.62514468 11.45833358 -4 13 C-4 11.35 -4 9.7 -4 8 C-3.01 7.67 -2.02 7.34 -1 7 C-0.67 4.69 -0.34 2.38 0 0 Z " fill="#F3F3F3" transform="translate(398,140)"/>
<path d="M0 0 C1.65 0 3.3 0 5 0 C5.625 1.875 5.625 1.875 6 4 C5.34 4.66 4.68 5.32 4 6 C1.375 5.625 1.375 5.625 -1 5 C-0.67 4.34 -0.34 3.68 0 3 C0.66 3 1.32 3 2 3 C2 2.34 2 1.68 2 1 C1.34 0.67 0.68 0.34 0 0 Z " fill="#F0F0F0" transform="translate(220,127)"/>
<path d="M0 0 C0.66 0.33 1.32 0.66 2 1 C2 6.94 2 12.88 2 19 C1.34 19.33 0.68 19.66 0 20 C-1.13896163 15.65507229 -0.93100471 11.61379215 -0.5625 7.1875 C-0.51029297 6.49462891 -0.45808594 5.80175781 -0.40429688 5.08789062 C-0.27560181 3.39145563 -0.13863816 1.69565137 0 0 Z " fill="#F2F2F2" transform="translate(361,106)"/>
<path d="M0 0 C0.99 0.33 1.98 0.66 3 1 C3 1.66 3 2.32 3 3 C-0.63 3 -4.26 3 -8 3 C-8.33 2.34 -8.66 1.68 -9 1 C-7.88625 1.020625 -6.7725 1.04125 -5.625 1.0625 C-2.16784079 1.26380718 -2.16784079 1.26380718 0 0 Z " fill="#ECECEC" transform="translate(427,155)"/>
<path d="M0 0 C2 3 2 3 1.625 5.6875 C1.41875 6.450625 1.2125 7.21375 1 8 C2.65 8 4.3 8 6 8 C6 8.33 6 8.66 6 9 C4.02 9 2.04 9 0 9 C-0.98150241 6.05549278 -1.1613058 4.06481021 -1 1 C-0.67 0.67 -0.34 0.34 0 0 Z " fill="#EEEEEE" transform="translate(103,222)"/>
<path d="M0 0 C3.3 0 6.6 0 10 0 C10.33 0.66 10.66 1.32 11 2 C6.58937864 3.0257259 4.07369424 3.03684712 0 1 C0 0.67 0 0.34 0 0 Z " fill="#ECECEC" transform="translate(247,156)"/>
<path d="M0 0 C2.67927341 4.01891012 2.15601248 6.24161923 2 11 C0 10 0 10 -0.6875 8.3125 C-1.08443325 5.37519398 -0.59080963 2.88840266 0 0 Z " fill="#EFEFEF" transform="translate(446,168)"/>
<path d="M0 0 C0.66 0.33 1.32 0.66 2 1 C2 1.99 2 2.98 2 4 C2.66 4 3.32 4 4 4 C3.67 4.66 3.34 5.32 3 6 C0.03 5.505 0.03 5.505 -3 5 C-2.34 4.67 -1.68 4.34 -1 4 C-0.34786708 1.97536745 -0.34786708 1.97536745 0 0 Z " fill="#F4F4F4" transform="translate(147,204)"/>
<path d="M0 0 C0.99 0.33 1.98 0.66 3 1 C2.34 3.31 1.68 5.62 1 8 C0.67 8 0.34 8 0 8 C-0.38063221 5.6739143 -0.71269945 3.33944736 -1 1 C-0.67 0.67 -0.34 0.34 0 0 Z " fill="#EFEFF0" transform="translate(102,171)"/>
<path d="M0 0 C1.65 0 3.3 0 5 0 C5 0.33 5 0.66 5 1 C3.35 1 1.7 1 0 1 C0 0.67 0 0.34 0 0 Z " fill="#FFFFFF" transform="translate(84,177)"/>
<path d="M0 0 C0.66 0.66 1.32 1.32 2 2 C1.34 2 0.68 2 0 2 C0 1.34 0 0.68 0 0 Z " fill="#FFFFFF" transform="translate(277,124)"/>
<path d="M0 0 C2 1 2 1 2 1 Z " fill="#FFFFFF" transform="translate(373,203)"/>
<path d="" fill="#FFFFFF" transform="translate(0,0)"/>
<path d="M0 0 C2 1 2 1 2 1 Z " fill="#FFFFFF" transform="translate(94,177)"/>
<path d="" fill="#000000" transform="translate(0,0)"/>
<path d="" fill="#000000" transform="translate(0,0)"/>
<path d="" fill="#000000" transform="translate(0,0)"/>
<path d="" fill="#000000" transform="translate(0,0)"/>
<path d="" fill="#000000" transform="translate(0,0)"/>
<path d="" fill="#000000" transform="translate(0,0)"/>
<path d="" fill="#000000" transform="translate(0,0)"/>
<path d="" fill="#000000" transform="translate(0,0)"/>
<path d="" fill="#000000" transform="translate(0,0)"/>
<path d="" fill="#000000" transform="translate(0,0)"/>
<path d="" fill="#000000" transform="translate(0,0)"/>
<path d="" fill="#000000" transform="translate(0,0)"/>
<path d="" fill="#000000" transform="translate(0,0)"/>
<path d="" fill="#000000" transform="translate(0,0)"/>
<path d="" fill="#000000" transform="translate(0,0)"/>
<path d="" fill="#000000" transform="translate(0,0)"/>
<path d="" fill="#000000" transform="translate(0,0)"/>
<path d="" fill="#000000" transform="translate(0,0)"/>
<path d="" fill="#FFFFFF" transform="translate(0,0)"/>
<path d="" fill="#FFFFFF" transform="translate(0,0)"/>
<path d="" fill="#FFFFFF" transform="translate(0,0)"/>
<path d="" fill="#FFFFFF" transform="translate(0,0)"/>
<path d="" fill="#FFFFFF" transform="translate(0,0)"/>
<path d="" fill="#FFFFFF" transform="translate(0,0)"/>
<path d="" fill="#FFFFFF" transform="translate(0,0)"/>
<path d="" fill="#FFFFFF" transform="translate(0,0)"/>
<path d="" fill="#000000" transform="translate(0,0)"/>
<path d="" fill="#FFFFFF" transform="translate(0,0)"/>
<path d="" fill="#FFFFFF" transform="translate(0,0)"/>
<path d="" fill="#FFFFFF" transform="translate(0,0)"/>
<path d="" fill="#000000" transform="translate(0,0)"/>
<path d="" fill="#000000" transform="translate(0,0)"/>
<path d="" fill="#FFFFFF" transform="translate(0,0)"/>
<path d="" fill="#FFFFFF" transform="translate(0,0)"/>
<path d="" fill="#000000" transform="translate(0,0)"/>
<path d="" fill="#000000" transform="translate(0,0)"/>
<path d="" fill="#000000" transform="translate(0,0)"/>
<path d="" fill="#000000" transform="translate(0,0)"/>
<path d="" fill="#000000" transform="translate(0,0)"/>
<path d="" fill="#000000" transform="translate(0,0)"/>
<path d="" fill="#000000" transform="translate(0,0)"/>
<path d="" fill="#000000" transform="translate(0,0)"/>
<path d="" fill="#000000" transform="translate(0,0)"/>
<path d="" fill="#000000" transform="translate(0,0)"/>
<path d="" fill="#000000" transform="translate(0,0)"/>
<path d="" fill="#000000" transform="translate(0,0)"/>
<path d="" fill="#000000" transform="translate(0,0)"/>
<path d="" fill="#000000" transform="translate(0,0)"/>
</svg>
